    <svg xmlns="http://www.w3.org/2000/svg" width="666.667" height="666.667" version="1.0" viewBox="150 140 200 200"><path d="M263.7 185.7c-.4.3.7 1.5 2.4 2.5 1.7 1.1 2.7 2.3 2.3 3-.5.7-.3.8.7.3 1.2-.8 1.2-.6 0 .8-1.2 1.5-1 1.7 2.1 1.7 1.9 0 3.9-.5 4.5-1.1.6-.6 2.8-1.7 4.9-2.4 2.2-.8 3.1-1.4 2.1-1.5-1 0-2.8.5-4 1.1-1.7.8-1.6.5.6-1.3 1.5-1.3 2.7-2.7 2.7-3.1 0-1.7-2.4-.4-5.5 3l-3.4 3.7-4-3.7c-4.4-4-4.5-4-5.4-3zM261.8 189.7c.6.2 1.8.2 2.5 0 .6-.3.1-.5-1.3-.5-1.4 0-1.9.2-1.2.5zM261.9 192.3c.5.5 1.9.7 3.2.5 2-.3 1.9-.5-.9-.9-2-.3-2.9-.2-2.3.4zM256 196.5c-1.7 2.1-2.7 44.4-1 47.4 1 2 1.9 2.1 17.5 2.1H289v-7.9l-11.7-.3-11.8-.3-.3-4.7-.3-4.7 10.3-.3 10.3-.3.3-3.8.3-3.7H266v-10h22v-7.9l-15.2-.3c-14.5-.3-15.3-.4-15.3-2.3s.8-2 14.8-2.3c19.7-.3 19.6-2.2-.2-2.2-12.1 0-15.1.3-16.1 1.5z"/><path d="M270.8 199.7c2.3.2 6.1.2 8.5 0 2.3-.2.4-.4-4.3-.4s-6.6.2-4.2.4zM162.8 203.2c-.3.7-.3 7.7-.2 15.5.2 12.4.5 14.7 2.4 18 2.6 4.6 6.9 7.8 13.1 9.4 9.1 2.4 19.4-3.1 21.8-11.6.6-2.2 1.1-10.4 1.1-18.3V202h-10v14.9c0 14.2-.1 15.1-2.3 17.7-3.3 3.8-9.6 3.9-13.4.1-2.8-2.7-2.8-2.9-3.1-17.7l-.3-15h-4.4c-2.5 0-4.5.5-4.7 1.2zM211 224v22.1l4.8-.3 4.7-.3.3-6c.3-4.9.8-6.5 3-8.8l2.6-2.7 2.3 2.7c1.2 1.6 4.4 5.6 6.9 9l4.7 6.3h6c4.6 0 5.7-.3 4.9-1.3-3.4-4.1-17.2-23.1-17.2-23.7 0-.3 3-3.9 6.8-8 10.4-11.4 10.3-11 3.9-11h-5.5l-8.9 9.6-8.8 9.7-.5-9.4-.5-9.4-4.7-.3-4.8-.3V224zM298 224v22h9v-13.6c0-7.8.4-13.4.9-13.2.5.1 3.6 3.7 6.8 7.8 15.9 20.4 14.5 19 18.6 19h3.7v-44h-8.9l-.3 13.2-.3 13.2-7-8.5c-3.8-4.6-8.7-10.5-10.8-13.1-3.3-4.3-4.2-4.8-7.7-4.8h-4v22zM286.7 258.7c-.4.3-.7 2.6-.7 5.1 0 3.8-.2 4.3-1.7 3.6-6.7-3.1-13.3 1.4-13.3 9 0 5.9 3.4 9.6 8.8 9.6 2.1 0 4.3-.5 4.9-1.1.8-.8 1.3-.8 1.7 0 .4.6 1.8 1.1 3.2 1.1h2.4v-28h-2.3c-1.3 0-2.7.3-3 .7zM286 274c1.6 2.9-.8 7.4-4.1 7.8-5.6.7-8.1-7.9-3-10.5 2.8-1.4 5.5-.4 7.1 2.7zM219.5 266.7c-1.1.3-2.6 1-3.2 1.5-.9.7-1.3.7-1.3-.1 0-.6-1.1-1.1-2.5-1.1-2.5 0-2.5 0-2.5 9.5s0 9.5 2.5 9.5c2.4 0 2.5-.3 2.5-5.3 0-5.9 2-9.7 5.1-9.7 1.4 0 1.9-.7 1.9-2.5 0-1.4-.1-2.4-.2-2.4-.2.1-1.2.4-2.3.6zM231 267.3c-4.9 1.7-7.6 7.2-6 12.2.7 2 2.4 4.3 3.8 5.3 5.5 3.6 16.6.8 13.2-3.3-.9-1.1-1.6-1.3-2.4-.5-2.3 2.3-9.6.6-9.6-2.2 0-.4 3.4-.8 7.5-.8 7.3 0 7.5-.1 7.5-2.5 0-3.1-4.6-8.3-8-8.9-1.4-.3-4.1 0-6 .7zm6.8 3.9c2.5 2.5 1.3 3.8-3.3 3.8-4.9 0-5.3-.4-2.8-3.2 1.9-2.1 4.4-2.3 6.1-.6zM252.3 267.1c-3.5 1-3.8 1.6-2.4 3.7.6 1 1.3 1.1 3.4.1 3.2-1.4 7.7.1 7.7 2.6 0 1.1-1.1 1.5-4.3 1.5-2.3 0-5.3.7-6.5 1.6-4.3 3-1.9 9.8 3.4 9.6 1.6-.1 5-.2 7.7-.2h4.7v-7.4c0-5.5-.4-7.9-1.7-9.5-2.1-2.5-7.4-3.4-12-2zm8.7 12.8c0 2.8-6 4.5-7.5 2.1-1.4-2.2.4-4 4-4 2.8 0 3.5.4 3.5 1.9z"/></svg>